Video
ID: 0
Format: MPEG-4 Visual
Format settings, BVOP: Yes
Format settings, QPel: No
Format settings, GMC: No warppoints
Format settings, Matrix: Default (H.263)
Muxing mode: Packed bitstream
Codec ID: DX50
Codec ID/Hint: DivX 5
Duration: 1h 25mn
Bit rate: 1 015 Kbps
Width: 720 pixels
Height: 288 pixels
Display aspect ratio: 2.500
Frame rate: 25.000 fps
Color space: YUV
Chroma subsampling: 4:2:0
Bit depth: 8 bits
Scan type: Progressive
Bits/(Pixel*Frame): 0.196
Stream size: 620 MiB (88%)
Writing library: DivX 6.8.5 (UTC 2009-08-20)


Audio
ID: 1
Format: MPEG Audio
Format version: Version 1
Format profile: Layer 3
Codec ID: 55
Codec ID/Hint: MP3
Duration: 1h 25mn
Bit rate mode: Constant
Bit rate: 128 Kbps
Channel(s): 2 channels
Sampling rate: 44.1 KHz
Video delay: 516ms
Stream size: 78.2 MiB (11%)
Alignment: Split accross interleaves
Interleave, duration: 40 ms (1.00 video frame)
Interleave, preload duration: 500 ms


Release Notes:

Thanx to both source. Right wirst off the russian ts had better colors but had
its own problems as well. About 30 seconds or so were missing from the video
so used the camrip for the missing scenes. Synced LU's audio to our video and
there ya go. Enjoi